<svg id="Layer_1" data-name="Layer 1" xmlns="http://www.w3.org/2000/svg" viewBox="0 0 775 800"><defs><style>.cls-1{fill:#2269e9;}</style></defs><path d="M762.5,0h-175a25,25,0,0,0-25,25V775a25,25,0,0,0,25,25h175a25,25,0,0,0,25-25V25A25,25,0,0,0,762.5,0Zm-25,750h-125V50h125Z" transform="translate(-12.5)"/><path class="cls-1" d="M487.5,400h-175a25,25,0,0,0-25,25V775a25,25,0,0,0,25,25h175a25,25,0,0,0,25-25V425A25,25,0,0,0,487.5,400Zm-25,350h-125V450h125Z" transform="translate(-12.5)"/><path d="M212.5,250H37.5a25,25,0,0,0-25,25V775a25,25,0,0,0,25,25h175a25,25,0,0,0,25-25V275A25,25,0,0,0,212.5,250Zm-25,500H62.5V300h125Z" transform="translate(-12.5)"/></svg>