<svg id="Layer_1" data-name="Layer 1" xmlns="http://www.w3.org/2000/svg" viewBox="0 0 750 745.21"><defs><style>.cls-1{fill:#2269e9;}</style></defs><path class="cls-1" d="M366.85,70.93C285.54,39.08,72.09,28.67,43.25,27.4L29.42,30.89a14.17,14.17,0,0,0-3.71,14.77V648.37l3.08,3.86c5,6.2,5.11,6.38,179.07,22.95l-6.4,54.51A20.73,20.73,0,0,0,210.09,749c21.61,15.14,45.56,21.38,67.35,22.65a67.5,67.5,0,0,0,60.43-29.42L410.31,160.9a79.19,79.19,0,0,0-.56-41.77C403.36,96.68,387.73,79.12,366.85,70.93ZM311,731c-16.4,17.68-51.23,16.62-81.08-2.53l61.88-527A6.76,6.76,0,0,1,295,196.3a7.93,7.93,0,0,1,6.85-.58c24.08,8.9,53.4,11.15,75.45,2.68Zm67-566.21c-9.26,12.37-39.65,14.48-66.34,4.6a35.61,35.61,0,0,0-31.26,3,34.86,34.86,0,0,0-16.48,25.81L211.15,647.28C158.76,642.29,82,634.7,53.8,631.35l-.11-575.3c52.6,2.73,233.61,13.88,302.91,41,17.31,6.79,23.07,21.79,26.12,29.74C388.67,142.3,380,162.05,378,164.78Z" transform="translate(-25 -27.4)"/><path class="cls-1" d="M642.21,772.6h115A17.8,17.8,0,0,0,775,754.81V144.4a17.81,17.81,0,0,0-17.79-17.79h-115a17.8,17.8,0,0,0-17.79,17.79V754.81A17.8,17.8,0,0,0,642.21,772.6ZM652.5,154.7h94.41v40.9H718.09a14,14,0,1,0,0,28.09h28.82V274.6H718.09a14,14,0,1,0,0,28.08h28.82v50.93H718.09a14,14,0,1,0,0,28.09h28.82v50.9H718.09a14,14,0,1,0,0,28.09h28.82v50.93H718.09a14,14,0,1,0,0,28.08h28.82v50.93H718.09a14,14,0,1,0,0,28.09h28.82v50.9H718.09a14,14,0,1,0,0,28.09h28.82v46.81H652.5Z" transform="translate(-25 -27.4)"/><path d="M532.94,383.09c-6.26-12.44-26.48-12.51-32.78,0,0,0-40.52,86.54-40.52,90V753A19.67,19.67,0,0,0,479.3,772.6h74.51A19.68,19.68,0,0,0,573.47,753V473.09C573.47,469.66,532.94,383.09,532.94,383.09Zm-45.21,98.43h57.65V692.06H487.73Zm28.82-68.39,20.15,40.3H496.41Zm28.83,331.39H487.73V720.14h57.65Z" transform="translate(-25 -27.4)"/></svg>