<!DOCTYPE svg PUBLIC "-//W3C//DTD SVG 1.1//EN" "http://www.w3.org/Graphics/SVG/1.1/DTD/svg11.dtd">
<!-- Uploaded to: SVG Repo, www.svgrepo.com, Transformed by: SVG Repo Mixer Tools -->
<svg fill="#2269e9" version="1.1" id="Capa_1" xmlns="http://www.w3.org/2000/svg" xmlns:xlink="http://www.w3.org/1999/xlink" width="800px" height="800px" viewBox="0 0 45.517 45.518" xml:space="preserve">
<g id="SVGRepo_bgCarrier" stroke-width="0"/>
<g id="SVGRepo_tracerCarrier" stroke-linecap="round" stroke-linejoin="round"/>
<g id="SVGRepo_iconCarrier"> <g> <g> <path d="M23.006,18.699h-5.008L14.636,1.672c-0.198-1.01-1.1-1.703-2.101-1.671c-1-0.032-1.899,0.661-2.099,1.671L7.073,18.699 H2.227c-1.093,0-1.979,0.878-1.979,1.971s0.887,1.97,1.979,1.97h4.068L2.267,43.039c-0.222,1.125,0.509,2.216,1.633,2.438 c0.137,0.025,0.272,0.04,0.403,0.04c0.972,0,1.84-0.686,2.035-1.674l4.188-21.204h4.022l4.188,21.204 c0.194,0.988,1.063,1.674,2.032,1.674c0.134,0,0.27-0.015,0.405-0.04c1.123-0.223,1.854-1.313,1.633-2.438L18.778,22.64h4.229 c1.092,0,1.979-0.877,1.979-1.97S24.099,18.699,23.006,18.699z M11.303,18.699l1.233-6.245l1.233,6.245H11.303z"/> <path d="M42.796,35.519h-0.984v-1.998h0.984c1.365,0,2.474-1.104,2.474-2.471c0-1.365-1.107-2.47-2.474-2.47H41.77 c-0.304-2.51-2.444-4.441-5.034-4.441h-3.711c-2.59,0-4.732,1.932-5.035,4.441h-1.023c-1.367,0-2.477,1.104-2.477,2.47 c0,1.366,1.107,2.471,2.477,2.471h0.969v1.998h-0.969c-1.367,0-2.477,1.104-2.477,2.47s1.107,2.47,2.477,2.47h0.989 c0.073,2.733,2.318,4.94,5.069,4.94h3.711c2.75,0,4.996-2.207,5.068-4.94h0.992c1.365,0,2.474-1.104,2.474-2.47 S44.162,35.519,42.796,35.519z M33.025,27.081h3.711c0.947,0,1.75,0.636,2.012,1.499h-7.734 C31.275,27.717,32.076,27.081,33.025,27.081z M30.868,33.536l7.946-0.016v1.998l-7.946,0.016V33.536z M36.736,42.401h-3.711 c-1.113,0-2.025-0.848-2.098-1.942h7.904C38.761,41.554,37.849,42.401,36.736,42.401z"/> </g> </g> </g>
</svg>