<svg id="Icons" xmlns="http://www.w3.org/2000/svg" viewBox="0 0 700 710.62"><defs><style>.cls-1,.cls-2{fill:none;stroke-linecap:round;stroke-linejoin:round;stroke-width:50px;}.cls-1{stroke:#2269e9;}.cls-2{stroke:#000;}</style></defs><path class="cls-1" d="M300,325,250,100h0a333.6,333.6,0,0,1,300,0h0L500,325" transform="translate(-50 -39.37)"/><path class="cls-2" d="M197.5,477.5c-2.5,15-5,32.5-5,47.5,0,17.5,2.5,32.5,5,47.5,25-2.5,50,7.5,62.5,32.5a64.64,64.64,0,0,1-5,70c22.5,22.5,52.5,40,85,50,10-22.5,32.5-40,60-40s50,17.5,60,40c32.5-10,60-27.5,85-50a64.64,64.64,0,0,1-5-70c12.5-22.5,40-35,62.5-32.5,2.5-15,5-32.5,5-47.5,0-17.5-2.5-32.5-5-47.5" transform="translate(-50 -39.37)"/><path class="cls-2" d="M345,475c-12.5,12.5-20,30-20,50,0,42.5,32.5,75,75,75s75-32.5,75-75c0-20-7.5-37.5-20-50" transform="translate(-50 -39.37)"/><path class="cls-1" d="M542.5,140C622.5,187.5,675,275,675,375v50l50,50H75l50-50V375c0-100,52.5-187.5,132.5-235" transform="translate(-50 -39.37)"/></svg>