<svg id="Layer_1" data-name="Layer 1" xmlns="http://www.w3.org/2000/svg" viewBox="0 0 701.22 602.15"><defs><style>.cls-1{fill:#2269e9;}</style></defs><path d="M330,502.15H82.46A19.85,19.85,0,0,0,62.77,522v19.69a19.69,19.69,0,0,0,19.69,19.69H330a19.68,19.68,0,0,0,19.69-19.69V522A19.85,19.85,0,0,0,330,502.15Z" transform="translate(-49.24 -99.38)"/><path d="M330,640.92H82.46a19.86,19.86,0,0,0-19.71,20c0,.21,0,.42,0,.63v20.31a19.7,19.7,0,0,0,19.69,19.69H330a19.69,19.69,0,0,0,19.69-19.69V661.54a19.85,19.85,0,0,0-19-20.62H330Z" transform="translate(-49.24 -99.38)"/><path class="cls-1" d="M717.69,502.15H470.31A19.85,19.85,0,0,0,450.62,522v19.69a19.68,19.68,0,0,0,19.69,19.69H717.69a19.69,19.69,0,0,0,19.85-19.53h0V522a19.85,19.85,0,0,0-19.85-19.85Z" transform="translate(-49.24 -99.38)"/><path class="cls-1" d="M717.69,640.92H470.31a19.85,19.85,0,0,0-19.71,20c0,.21,0,.42,0,.63v20.31a19.69,19.69,0,0,0,19.69,19.69H717.69A19.7,19.7,0,0,0,737.54,682h0V661.54a19.86,19.86,0,0,0-19-20.62h-.8Z" transform="translate(-49.24 -99.38)"/><path d="M594,100.31A156.46,156.46,0,1,0,750.46,256.77h0A156.77,156.77,0,0,0,594,100.31Zm76.92,167.38a9.68,9.68,0,0,1-9.38,9.23H526.31a9.23,9.23,0,0,1-9.85-8.46,134.28,134.28,0,0,1,0-22.15,10.16,10.16,0,0,1,9.85-8.46H661.54a9.83,9.83,0,0,1,9.69,8.46,141.28,141.28,0,0,1,0,21.38Z" transform="translate(-49.24 -99.38)"/><path class="cls-1" d="M317.38,145.38a157.08,157.08,0,1,0,0,222.16,157.08,157.08,0,0,0,0-222.16Zm-6.61,124.16a6.16,6.16,0,0,1-5.83,6.46H232.46a6.92,6.92,0,0,0-6.61,6.62v71.23a6.78,6.78,0,0,1-6.47,6.46H193.23a6.15,6.15,0,0,1-6.61-5.66v-72A6.17,6.17,0,0,0,181,276H107.69a6.15,6.15,0,0,1-6.61-5.66v-27a6.92,6.92,0,0,1,6.61-6.61h71.85a6.16,6.16,0,0,0,6.46-5.83V158.46a7.23,7.23,0,0,1,6.62-6.61h26.15a6.46,6.46,0,0,1,6.46,6.46h0v72.46a6.16,6.16,0,0,0,5.83,6.46h72.63a6.92,6.92,0,0,1,6.46,6.62Z" transform="translate(-49.24 -99.38)"/></svg>