<svg id="Layer_1" data-name="Layer 1" xmlns="http://www.w3.org/2000/svg" viewBox="0 0 685.72 685.72"><defs><style>.cls-1{fill:#2269e9;}</style></defs><rect class="cls-1" x="154.29" y="394.29" width="68.57" height="137.14"/><rect class="cls-1" x="257.15" y="257.15" width="68.57" height="274.28"/><rect class="cls-1" x="360" y="325.72" width="68.57" height="205.71"/><rect class="cls-1" x="462.83" y="154.29" width="68.57" height="377.14"/><path d="M700,57.14H100A42.87,42.87,0,0,0,57.14,100V700A42.87,42.87,0,0,0,100,742.86H700A42.87,42.87,0,0,0,742.86,700V100A42.87,42.87,0,0,0,700,57.14Zm-42.86,600H142.86V142.86H657.14Z" transform="translate(-57.14 -57.14)"/><rect class="cls-1" x="154.29" y="394.29" width="68.57" height="137.14"/><rect class="cls-1" x="257.15" y="257.15" width="68.57" height="274.28"/><rect class="cls-1" x="360" y="325.72" width="68.57" height="205.71"/><rect class="cls-1" x="462.83" y="154.29" width="68.57" height="377.14"/><rect class="cls-1" x="154.29" y="394.29" width="68.57" height="137.14"/><rect class="cls-1" x="257.15" y="257.15" width="68.57" height="274.28"/><rect class="cls-1" x="360" y="325.72" width="68.57" height="205.71"/><rect class="cls-1" x="462.83" y="154.29" width="68.57" height="377.14"/></svg>