<svg id="Layer_1" data-name="Layer 1" xmlns="http://www.w3.org/2000/svg" viewBox="0 0 575.62 647.89"><defs><style>.cls-1{fill:#2269e9;}</style></defs><rect class="cls-1" x="96.25" y="284.22" width="61.56" height="61.41"/><rect class="cls-1" x="96.25" y="392.97" width="61.56" height="61.41"/><rect class="cls-1" x="96.25" y="501.64" width="61.56" height="61.41"/><rect class="cls-1" x="231.17" y="284.22" width="61.56" height="61.41"/><rect class="cls-1" x="231.17" y="392.97" width="61.56" height="61.41"/><rect class="cls-1" x="231.17" y="501.64" width="61.56" height="61.41"/><path d="M483,266H172.58L314.45,117,419.3,229.53a18.1,18.1,0,0,0,26.56-24.61L327.89,78.2a18.11,18.11,0,0,0-13.2-5.78c-5.08.39-9.77,2-13.28,5.63L117.19,271.64a18,18,0,0,0-5,12.5V702a18.14,18.14,0,0,0,18.12,18.13H483A18.14,18.14,0,0,0,501.09,702V284.14A18.08,18.08,0,0,0,483,266ZM464.84,683.83H148.44V302.19h316.4Z" transform="translate(-112.19 -72.42)"/><rect class="cls-1" x="96.25" y="284.22" width="61.56" height="61.41"/><rect class="cls-1" x="96.25" y="392.97" width="61.56" height="61.41"/><rect class="cls-1" x="96.25" y="501.64" width="61.56" height="61.41"/><rect class="cls-1" x="231.17" y="284.22" width="61.56" height="61.41"/><rect class="cls-1" x="231.17" y="392.97" width="61.56" height="61.41"/><rect class="cls-1" x="231.17" y="501.64" width="61.56" height="61.41"/><path class="cls-1" d="M669.77,340.08H546.48a18.13,18.13,0,0,0,0,36.25H651.56V684.06H546.48a18.13,18.13,0,0,0,0,36.25H669.69a18.13,18.13,0,0,0,18.12-18.12V358.12a18,18,0,0,0-18-18Z" transform="translate(-112.19 -72.42)"/><rect class="cls-1" x="231.17" y="284.22" width="61.56" height="61.41"/><rect class="cls-1" x="96.25" y="284.22" width="61.56" height="61.41"/><rect class="cls-1" x="231.17" y="392.97" width="61.56" height="61.41"/><rect class="cls-1" x="96.25" y="392.97" width="61.56" height="61.41"/><rect class="cls-1" x="231.17" y="501.64" width="61.56" height="61.41"/><rect class="cls-1" x="96.25" y="501.64" width="61.56" height="61.41"/></svg>